<svg xmlns="http://www.w3.org/2000/svg" xmlns:xlink="http://www.w3.org/1999/xlink"><symbol id="icon-close" viewBox="0 0 20 20"><g fill="none"><path d="M.293 18.291a1 1 0 101.414 1.414L10 11.413l8.292 8.292a1 1 0 101.414-1.414l-8.292-8.292 8.292-8.292A1 1 0 1018.291.293L9.999 8.585 1.707.293A1 1 0 10.293 1.707L8.585 10 .293 18.291z"/></g></symbol><symbol id="sprite">
  <symbol viewBox="0 0 118 22" id="logo">
    <path d="M5.768 22.252c-1.176 0-2.196-.18-3.06-.54-.864-.36-1.524-.996-1.98-1.908-.432-.912-.648-2.196-.648-3.852v-1.224h3.528v1.512c0 1.008.096 1.788.288 2.34.192.552.456.936.792 1.152.336.192.72.288 1.152.288.696 0 1.248-.228 1.656-.684.432-.48.648-1.368.648-2.664 0-.96-.144-1.68-.432-2.16-.288-.48-.744-.864-1.368-1.152-.6-.312-1.38-.66-2.34-1.044a9.005 9.005 0 0 1-2.052-1.26A4.416 4.416 0 0 1 .656 9.22C.368 8.476.224 7.552.224 6.448c0-1.344.168-2.436.504-3.276a3.44 3.44 0 0 1 1.8-1.872C3.368.892 4.496.688 5.912.688c1.824 0 3.216.42 4.176 1.26.96.816 1.44 2.016 1.44 3.6v2.484H8.144V6.556c0-1.104-.18-1.896-.54-2.376-.336-.504-.888-.756-1.656-.756-.792 0-1.368.24-1.728.72-.336.456-.504 1.188-.504 2.196 0 .864.168 1.536.504 2.016.336.456.768.816 1.296 1.08.552.264 1.116.504 1.692.72 1.08.408 1.956.828 2.628 1.26a3.822 3.822 0 0 1 1.476 1.728c.312.72.468 1.74.468 3.06 0 1.512-.252 2.712-.756 3.6a4.18 4.18 0 0 1-2.088 1.872c-.888.384-1.944.576-3.168.576Zm15.148.18c-.816 0-1.572-.06-2.268-.18-.696-.12-1.296-.36-1.8-.72s-.9-.9-1.188-1.62c-.288-.72-.432-1.692-.432-2.916V.724h3.456v17.172c0 .648.096 1.152.288 1.512.216.336.492.564.828.684.336.12.708.18 1.116.18.408 0 .78-.06 1.116-.18.336-.12.6-.348.792-.684.216-.36.324-.864.324-1.512V.724h3.42V16.96c0 1.224-.144 2.208-.432 2.952-.264.72-.648 1.26-1.152 1.62-.504.36-1.104.6-1.8.72s-1.452.18-2.268.18ZM30.822 22V.724h7.2c1.344 0 2.376.3 3.096.9.72.6 1.08 1.488 1.08 2.664v3.78c0 .912-.12 1.764-.36 2.556a3.426 3.426 0 0 1-1.296 1.872c-.624.48-1.536.72-2.736.72h-3.384V22h-3.6Zm3.6-10.728h2.196c.72 0 1.26-.276 1.62-.828.36-.576.54-1.5.54-2.772V5.764c0-1.128-.156-1.932-.468-2.412-.312-.48-.744-.72-1.296-.72h-2.592v8.64ZM45.605 22V.724h9.576v2.448h-5.976v6.444h4.931v2.7h-4.931v7.308h5.976V22h-9.576Zm12.848 0V.724h7.344c1.344 0 2.376.3 3.096.9.744.6 1.116 1.488 1.116 2.664v3.384c0 1.176-.324 2.136-.972 2.88-.648.72-1.608 1.116-2.88 1.188.816.072 1.392.336 1.728.792.36.456.684 1.164.972 2.124L70.91 22h-3.816l-1.692-7.092a10.03 10.03 0 0 0-.576-1.584c-.216-.456-.564-.684-1.044-.684h-1.764V22h-3.564Zm3.564-11.772h2.304c.84 0 1.428-.216 1.764-.648.36-.432.54-1.092.54-1.98V4.9c0-.792-.168-1.368-.504-1.728-.312-.36-.804-.54-1.476-.54h-2.628v7.596Zm16.596 12.168A6.64 6.64 0 0 1 76.31 22c-.72-.24-1.308-.732-1.764-1.476-.432-.768-.648-1.908-.648-3.42V5.224c0-1.296.24-2.28.72-2.952.48-.696 1.152-1.164 2.016-1.404.864-.264 1.86-.396 2.988-.396s2.124.132 2.988.396c.864.264 1.536.744 2.016 1.44.504.672.756 1.644.756 2.916v2.88h-3.348V5.08c0-.72-.108-1.26-.324-1.62-.192-.36-.468-.6-.828-.72-.336-.12-.744-.18-1.224-.18-.432 0-.828.06-1.188.18s-.648.36-.864.72c-.192.36-.288.9-.288 1.62v12.78c0 .72.096 1.26.288 1.62.216.36.504.6.864.72s.756.18 1.188.18c.696 0 1.26-.204 1.692-.612.456-.432.684-1.068.684-1.908v-4.32H79.91v-1.98h5.472V22H82.79l-.18-1.8a4.891 4.891 0 0 1-.18.324c-.072.096-.132.18-.18.252-.288.432-.72.816-1.296 1.152-.552.312-1.332.468-2.34.468ZM91.911 22v-9.144L87.951.724h3.42l2.232 7.272.18 1.116L94 7.996 96.34.724h3.204l-4.176 12.312V22h-3.456Zm10.538 0V.724h4.248l3.564 15.12 3.6-15.12h4.212V22h-3.06V5.584L111.449 22h-2.376l-3.564-16.416V22h-3.06Z" fill="currentColor"/>
  </symbol>
  <symbol viewBox="0 0 22 22" id="vk">
    <path d="M21.804 15.703c-.06-.094-.425-.854-2.185-2.416-1.843-1.635-1.595-1.37.624-4.197 1.352-1.722 1.892-2.774 1.723-3.224-.16-.428-1.155-.315-1.155-.315l-3.306.018s-.244-.031-.427.073c-.178.102-.292.339-.292.339s-.524 1.333-1.222 2.466c-1.473 2.391-2.063 2.517-2.304 2.369-.56-.346-.419-1.391-.419-2.133 0-2.317.367-3.283-.716-3.533-.36-.083-.625-.138-1.545-.147-1.18-.012-2.18.004-2.744.268-.377.176-.667.57-.49.591.219.028.714.128.976.47.34.44.328 1.431.328 1.431s.195 2.728-.455 3.067c-.447.233-1.06-.242-2.373-2.412-.672-1.11-1.18-2.34-1.18-2.34s-.098-.229-.273-.35c-.212-.15-.509-.197-.509-.197L.717 5.55s-.472.013-.645.209c-.154.174-.013.535-.013.535s2.462 5.504 5.248 8.279c2.556 2.543 5.458 2.376 5.458 2.376h1.314s.398-.042.6-.25c.187-.193.18-.553.18-.553s-.026-1.686.793-1.935c.808-.244 1.844 1.63 2.943 2.352.83.546 1.462.426 1.462.426l2.938-.04s1.538-.09.809-1.246Z" fill="currentColor"/>
  </symbol>
  <symbol viewBox="0 0 22 22" id="ok">
    <path d="M11 3.328c1.323 0 2.399 1.055 2.399 2.351 0 1.293-1.076 2.348-2.399 2.348S8.601 6.972 8.601 5.679c0-1.296 1.076-2.351 2.399-2.351Zm0 8.027c3.196 0 5.794-2.547 5.794-5.676C16.794 2.547 14.196 0 11 0 7.804 0 5.21 2.547 5.21 5.68c0 3.128 2.594 5.675 5.79 5.675Zm2.343 4.633a11.044 11.044 0 0 0 3.363-1.368 1.644 1.644 0 0 0 .534-2.292 1.715 1.715 0 0 0-2.343-.524 7.486 7.486 0 0 1-7.798 0 1.71 1.71 0 0 0-2.339.524 1.644 1.644 0 0 0 .534 2.292 11.044 11.044 0 0 0 3.363 1.368l-3.24 3.171a1.641 1.641 0 0 0 0 2.352 1.727 1.727 0 0 0 2.403 0L11 18.394l3.184 3.117a1.715 1.715 0 0 0 2.399 0 1.641 1.641 0 0 0 0-2.352l-3.24-3.171Z" fill="currentColor"/>
  </symbol>
  <symbol viewBox="0 0 22 22" id="reddit">
    <path d="M12.945.5c-.641 0-1.243.342-1.629.834-.386.493-.599 1.093-.754 1.726-.246 1.018-.322 2.147-.34 3.165-1.803.126-3.435.686-4.79 1.553-.55-.485-1.213-.755-1.848-.748-.724.007-1.41.335-1.921 1.007-.976 1.284-.864 3.384.267 4.631-.07.385-.122.78-.122 1.18 0 4.229 4.116 7.652 9.192 7.652 5.076 0 9.192-3.427 9.192-7.652 0-.4-.052-.795-.122-1.18 1.13-1.247 1.243-3.347.267-4.631-.51-.672-1.197-1-1.92-1.007-.636-.007-1.298.263-1.849.748-1.35-.863-2.972-1.424-4.766-1.553.025-.939.089-1.913.268-2.647.112-.46.246-.795.389-.978.143-.183.246-.259.486-.259.52 0 .587.176.9.604.158.216.34.486.632.748.292.263.724.49 1.192.49V2.34c-.131 0-.155-.004-.243-.086-.089-.083-.21-.273-.39-.518C14.678 1.244 13.982.5 12.947.5Zm5.058.173c-1.21 0-2.188 1.157-2.188 2.589 0 1.43.978 2.589 2.188 2.589 1.21 0 2.189-1.158 2.189-2.59 0-1.43-.98-2.588-2.189-2.588Zm0 .92c.778 0 1.41.748 1.41 1.669 0 .92-.632 1.668-1.41 1.668-.778 0-1.41-.748-1.41-1.668 0-.92.632-1.669 1.41-1.669ZM11 7.663c4.307 0 7.951 2.837 7.951 6.185 0 3.351-3.644 6.185-7.951 6.185-4.307 0-7.951-2.834-7.951-6.185 0-3.348 3.644-6.185 7.951-6.185Zm-7.392.834c.216.004.44.061.656.173-.78.701-1.4 1.507-1.823 2.416-.292-.712-.213-1.6.146-2.07a1.241 1.241 0 0 1 1.02-.519Zm14.784 0c.398-.003.76.173 1.021.518.36.471.438 1.36.146 2.071-.422-.91-1.042-1.715-1.823-2.416a1.49 1.49 0 0 1 .656-.173ZM7.888 10.8c-.779 0-1.41.748-1.41 1.668 0 .92.631 1.669 1.41 1.669.778 0 1.41-.748 1.41-1.669 0-.92-.632-1.668-1.41-1.668Zm6.225 0c-.779 0-1.41.748-1.41 1.668 0 .92.631 1.669 1.41 1.669.778 0 1.41-.748 1.41-1.669 0-.92-.632-1.668-1.41-1.668Zm-6.98 5.667c.496 1.212 2.028 2.387 3.867 2.387s3.395-1.175 3.89-2.387c-.9.687-2.319 1.15-3.89 1.15-1.571 0-2.967-.463-3.866-1.15Z" fill="currentColor"/>
  </symbol>
  <symbol viewBox="0 0 13 15" id="play">
    <path d="M13 7.5.25 14.861V.14L13 7.5Z" fill="#currenColor"/>
  </symbol>
  <symbol viewBox="0 0 16 32" id="swiper-button">
    <path d="M17 1 1 17l16 16" stroke="currentColor"/>
  </symbol>
</symbol></svg>